<svg width="22" height="23" viewBox="0 0 22 23" fill="none" xmlns="http://www.w3.org/2000/svg">
<path d="M17.7918 15.0845H3.7085" stroke="black" stroke-width="1.55" stroke-linejoin="round"/>
<path d="M15.0833 3.16775H6.41667M7.5 3.70942V9.94942C7.50026 10.4667 7.31542 10.967 6.97892 11.3599L1.52 17.7256C1.18389 18.1186 0.999445 18.6189 1 19.1361V19.4178C1 19.9924 1.22827 20.5435 1.6346 20.9498C2.04093 21.3561 2.59203 21.5844 3.16667 21.5844H18.3333C18.908 21.5844 19.4591 21.3561 19.8654 20.9498C20.2717 20.5435 20.5 19.9924 20.5 19.4178V19.1361C20.5 18.6186 20.3147 18.1183 19.9778 17.7256L14.5211 11.3599C14.1846 10.967 13.9997 10.4667 14 9.94942V3.70942M10.75 8.59525L10.7608 8.58333M9.66667 1.01192L9.6775 1" stroke="black" stroke-width="1.55" stroke-linecap="round" stroke-linejoin="round"/>
</svg>
